<mxfile host="65bd71144e">
    <diagram id="fnSBRcc_dxPOJhorSgFZ" name="Page-1">
        <mxGraphModel dx="641" dy="535" grid="1" gridSize="10" guides="1" tooltips="1" connect="1" arrows="1" fold="1" page="1" pageScale="1" pageWidth="850" pageHeight="1100" math="0" shadow="0">
            <root>
                <mxCell id="0"/>
                <mxCell id="1" parent="0"/>
                <mxCell id="2" value="FRONT&lt;br&gt;REACT" style="rounded=0;whiteSpace=wrap;html=1;" vertex="1" parent="1">
                    <mxGeometry x="120" y="40" width="120" height="60" as="geometry"/>
                </mxCell>
                <mxCell id="3" value="BACK&lt;br&gt;FIREBASE" style="rounded=0;whiteSpace=wrap;html=1;" vertex="1" parent="1">
                    <mxGeometry x="630" y="40" width="120" height="60" as="geometry"/>
                </mxCell>
                <mxCell id="4" value="" style="endArrow=none;dashed=1;html=1;dashPattern=1 3;strokeWidth=2;" edge="1" parent="1">
                    <mxGeometry width="50" height="50" relative="1" as="geometry">
                        <mxPoint x="440" y="1573" as="sourcePoint"/>
                        <mxPoint x="440" y="10" as="targetPoint"/>
                    </mxGeometry>
                </mxCell>
                <mxCell id="5" value="LoginFORM" style="rounded=0;whiteSpace=wrap;html=1;" vertex="1" parent="1">
                    <mxGeometry x="90" y="160" width="120" height="40" as="geometry"/>
                </mxCell>
                <mxCell id="7" style="edgeStyle=none;html=1;" edge="1" parent="1" source="6">
                    <mxGeometry relative="1" as="geometry">
                        <mxPoint x="570" y="230" as="targetPoint"/>
                    </mxGeometry>
                </mxCell>
                <mxCell id="6" value="email: James@bonc&lt;br&gt;pass: secret123" style="rounded=1;whiteSpace=wrap;html=1;" vertex="1" parent="1">
                    <mxGeometry x="90" y="200" width="120" height="60" as="geometry"/>
                </mxCell>
                <mxCell id="10" style="edgeStyle=orthogonalEdgeStyle;html=1;entryX=0;entryY=0;entryDx=0;entryDy=27.5;entryPerimeter=0;" edge="1" parent="1" source="8" target="9">
                    <mxGeometry relative="1" as="geometry"/>
                </mxCell>
                <mxCell id="8" value="email: James@bonc&lt;br&gt;pass: secret123" style="rounded=1;whiteSpace=wrap;html=1;" vertex="1" parent="1">
                    <mxGeometry x="570" y="200" width="120" height="60" as="geometry"/>
                </mxCell>
                <mxCell id="12" style="edgeStyle=orthogonalEdgeStyle;html=1;entryX=1;entryY=0.5;entryDx=0;entryDy=0;" edge="1" parent="1" source="9" target="11">
                    <mxGeometry relative="1" as="geometry">
                        <Array as="points">
                            <mxPoint x="910" y="420"/>
                        </Array>
                    </mxGeometry>
                </mxCell>
                <mxCell id="9" value="USERS" style="shape=cylinder3;whiteSpace=wrap;html=1;boundedLbl=1;backgroundOutline=1;size=15;" vertex="1" parent="1">
                    <mxGeometry x="880" y="160" width="60" height="80" as="geometry"/>
                </mxCell>
                <mxCell id="13" style="edgeStyle=orthogonalEdgeStyle;html=1;" edge="1" parent="1" source="11" target="17">
                    <mxGeometry relative="1" as="geometry">
                        <mxPoint x="330" y="380" as="targetPoint"/>
                    </mxGeometry>
                </mxCell>
                <mxCell id="15" value="YRA" style="edgeLabel;html=1;align=center;verticalAlign=middle;resizable=0;points=[];" vertex="1" connectable="0" parent="13">
                    <mxGeometry x="-0.1815" relative="1" as="geometry">
                        <mxPoint as="offset"/>
                    </mxGeometry>
                </mxCell>
                <mxCell id="14" style="edgeStyle=orthogonalEdgeStyle;html=1;" edge="1" parent="1" source="11" target="18">
                    <mxGeometry relative="1" as="geometry">
                        <mxPoint x="380" y="560" as="targetPoint"/>
                        <Array as="points">
                            <mxPoint x="650" y="550"/>
                            <mxPoint x="380" y="550"/>
                        </Array>
                    </mxGeometry>
                </mxCell>
                <mxCell id="16" value="NERA" style="edgeLabel;html=1;align=center;verticalAlign=middle;resizable=0;points=[];" vertex="1" connectable="0" parent="14">
                    <mxGeometry x="0.1525" y="2" relative="1" as="geometry">
                        <mxPoint as="offset"/>
                    </mxGeometry>
                </mxCell>
                <mxCell id="11" value="" style="rhombus;whiteSpace=wrap;html=1;" vertex="1" parent="1">
                    <mxGeometry x="610" y="380" width="80" height="80" as="geometry"/>
                </mxCell>
                <mxCell id="20" style="edgeStyle=orthogonalEdgeStyle;html=1;entryX=1;entryY=0.5;entryDx=0;entryDy=0;" edge="1" parent="1" source="17" target="19">
                    <mxGeometry relative="1" as="geometry"/>
                </mxCell>
                <mxCell id="17" value="Success" style="shape=process;whiteSpace=wrap;html=1;backgroundOutline=1;" vertex="1" parent="1">
                    <mxGeometry x="280" y="350" width="120" height="60" as="geometry"/>
                </mxCell>
                <mxCell id="22" style="edgeStyle=orthogonalEdgeStyle;html=1;entryX=1;entryY=0.5;entryDx=0;entryDy=0;" edge="1" parent="1" source="18" target="21">
                    <mxGeometry relative="1" as="geometry"/>
                </mxCell>
                <mxCell id="18" value="FAIL" style="shape=process;whiteSpace=wrap;html=1;backgroundOutline=1;" vertex="1" parent="1">
                    <mxGeometry x="280" y="510" width="120" height="60" as="geometry"/>
                </mxCell>
                <mxCell id="19" value="Navigate to VIP" style="rounded=0;whiteSpace=wrap;html=1;" vertex="1" parent="1">
                    <mxGeometry x="100" y="350" width="120" height="60" as="geometry"/>
                </mxCell>
                <mxCell id="21" value="Neteisingas slaptazodis ar email" style="rounded=0;whiteSpace=wrap;html=1;" vertex="1" parent="1">
                    <mxGeometry x="90" y="510" width="120" height="70" as="geometry"/>
                </mxCell>
                <mxCell id="28" style="edgeStyle=orthogonalEdgeStyle;html=1;entryX=0.16;entryY=0.55;entryDx=0;entryDy=0;entryPerimeter=0;" edge="1" parent="1" source="26" target="27">
                    <mxGeometry relative="1" as="geometry"/>
                </mxCell>
                <mxCell id="26" value="&lt;span style=&quot;color: rgb(220, 220, 170); font-family: &amp;quot;Cascadia code PL&amp;quot;, Menlo, Monaco, &amp;quot;Courier New&amp;quot;, monospace, Consolas, &amp;quot;Courier New&amp;quot;, monospace; font-size: 15px; background-color: rgb(31, 31, 31);&quot;&gt;onAuthStateChanged&lt;/span&gt;" style="ellipse;shape=cloud;whiteSpace=wrap;html=1;" vertex="1" parent="1">
                    <mxGeometry x="70" y="640" width="260" height="130" as="geometry"/>
                </mxCell>
                <mxCell id="27" value="&lt;span style=&quot;color: rgb(220, 220, 170); font-family: &amp;quot;Cascadia code PL&amp;quot;, Menlo, Monaco, &amp;quot;Courier New&amp;quot;, monospace, Consolas, &amp;quot;Courier New&amp;quot;, monospace; font-size: 15px; background-color: rgb(31, 31, 31);&quot;&gt;onAuthStateChanged&lt;/span&gt;" style="ellipse;shape=cloud;whiteSpace=wrap;html=1;" vertex="1" parent="1">
                    <mxGeometry x="540" y="620" width="260" height="130" as="geometry"/>
                </mxCell>
                <mxCell id="33" style="edgeStyle=orthogonalEdgeStyle;html=1;" edge="1" parent="1" source="30" target="34">
                    <mxGeometry relative="1" as="geometry">
                        <mxPoint x="320" y="840" as="targetPoint"/>
                    </mxGeometry>
                </mxCell>
                <mxCell id="35" style="edgeStyle=orthogonalEdgeStyle;html=1;" edge="1" parent="1" source="30" target="36">
                    <mxGeometry relative="1" as="geometry">
                        <mxPoint x="420" y="980" as="targetPoint"/>
                        <Array as="points">
                            <mxPoint x="650" y="980"/>
                        </Array>
                    </mxGeometry>
                </mxCell>
                <mxCell id="30" value="if (user)" style="rhombus;whiteSpace=wrap;html=1;" vertex="1" parent="1">
                    <mxGeometry x="610" y="770" width="80" height="80" as="geometry"/>
                </mxCell>
                <mxCell id="34" value="LOGIN SUCCESS" style="rounded=0;whiteSpace=wrap;html=1;" vertex="1" parent="1">
                    <mxGeometry x="250" y="800" width="120" height="60" as="geometry"/>
                </mxCell>
                <mxCell id="36" value="LOGOUT" style="rounded=0;whiteSpace=wrap;html=1;" vertex="1" parent="1">
                    <mxGeometry x="260" y="930" width="120" height="60" as="geometry"/>
                </mxCell>
                <mxCell id="37" value="AUTH PROVIDER" style="rounded=0;whiteSpace=wrap;html=1;" vertex="1" parent="1">
                    <mxGeometry x="140" y="1030" width="190" height="60" as="geometry"/>
                </mxCell>
                <mxCell id="38" value="&lt;div style=&quot;color: rgb(204, 204, 204); background-color: rgb(31, 31, 31); font-family: &amp;quot;Cascadia code PL&amp;quot;, Menlo, Monaco, &amp;quot;Courier New&amp;quot;, monospace, Consolas, &amp;quot;Courier New&amp;quot;, monospace; font-size: 15px; line-height: 20px;&quot;&gt;&lt;span style=&quot;color: #dcdcaa;&quot;&gt;createContext({})&lt;/span&gt;&lt;/div&gt;" style="rounded=0;whiteSpace=wrap;html=1;" vertex="1" parent="1">
                    <mxGeometry x="250" y="1140" width="180" height="60" as="geometry"/>
                </mxCell>
                <mxCell id="39" value="&lt;div style=&quot;color: rgb(204, 204, 204); background-color: rgb(31, 31, 31); font-family: &amp;quot;Cascadia code PL&amp;quot;, Menlo, Monaco, &amp;quot;Courier New&amp;quot;, monospace, Consolas, &amp;quot;Courier New&amp;quot;, monospace; font-size: 15px; line-height: 20px;&quot;&gt;&lt;span style=&quot;color: #4fc1ff;&quot;&gt;AuthContext&lt;/span&gt;&lt;/div&gt;" style="rounded=0;whiteSpace=wrap;html=1;" vertex="1" parent="1">
                    <mxGeometry x="90" y="1140" width="120" height="60" as="geometry"/>
                </mxCell>
                <mxCell id="45" style="edgeStyle=orthogonalEdgeStyle;html=1;entryX=0;entryY=0.75;entryDx=0;entryDy=0;" edge="1" parent="1" source="40" target="44">
                    <mxGeometry relative="1" as="geometry"/>
                </mxCell>
                <mxCell id="40" value="&lt;div style=&quot;color: rgb(204, 204, 204); background-color: rgb(31, 31, 31); font-family: &amp;quot;Cascadia code PL&amp;quot;, Menlo, Monaco, &amp;quot;Courier New&amp;quot;, monospace, Consolas, &amp;quot;Courier New&amp;quot;, monospace; font-size: 15px; line-height: 20px;&quot;&gt;&lt;span style=&quot;color: #808080;&quot;&gt;&amp;lt;&lt;/span&gt;&lt;span style=&quot;color: #4ec9b0;&quot;&gt;App&lt;/span&gt; &lt;span style=&quot;color: #808080;&quot;&gt;/&amp;gt;&lt;/span&gt;&lt;/div&gt;" style="rounded=0;whiteSpace=wrap;html=1;" vertex="1" parent="1">
                    <mxGeometry x="210" y="1360" width="120" height="60" as="geometry"/>
                </mxCell>
                <mxCell id="41" value="&lt;div style=&quot;color: rgb(204, 204, 204); background-color: rgb(31, 31, 31); font-family: &amp;quot;Cascadia code PL&amp;quot;, Menlo, Monaco, &amp;quot;Courier New&amp;quot;, monospace, Consolas, &amp;quot;Courier New&amp;quot;, monospace; font-size: 15px; line-height: 20px;&quot;&gt;&lt;div style=&quot;line-height: 20px;&quot;&gt;&lt;span style=&quot;color: #808080;&quot;&gt;&amp;lt;&lt;/span&gt;&lt;span style=&quot;color: #4ec9b0;&quot;&gt;AuthContext.Provider &amp;gt;&lt;/span&gt;&lt;/div&gt;&lt;/div&gt;" style="rounded=0;whiteSpace=wrap;html=1;" vertex="1" parent="1">
                    <mxGeometry x="120" y="1250" width="260" height="60" as="geometry"/>
                </mxCell>
                <mxCell id="42" value="&lt;div style=&quot;color: rgb(204, 204, 204); background-color: rgb(31, 31, 31); font-family: &amp;quot;Cascadia code PL&amp;quot;, Menlo, Monaco, &amp;quot;Courier New&amp;quot;, monospace, Consolas, &amp;quot;Courier New&amp;quot;, monospace; font-size: 15px; line-height: 20px;&quot;&gt;&lt;div style=&quot;line-height: 20px;&quot;&gt;&lt;span style=&quot;color: #808080;&quot;&gt;&amp;lt;/&lt;/span&gt;&lt;span style=&quot;color: #4ec9b0;&quot;&gt;AuthContext.Provider &amp;gt;&lt;/span&gt;&lt;/div&gt;&lt;/div&gt;" style="rounded=0;whiteSpace=wrap;html=1;" vertex="1" parent="1">
                    <mxGeometry x="120" y="1460" width="260" height="60" as="geometry"/>
                </mxCell>
                <mxCell id="43" value="&lt;div style=&quot;color: rgb(204, 204, 204); background-color: rgb(31, 31, 31); font-family: &amp;quot;Cascadia code PL&amp;quot;, Menlo, Monaco, &amp;quot;Courier New&amp;quot;, monospace, Consolas, &amp;quot;Courier New&amp;quot;, monospace; font-size: 15px; line-height: 20px;&quot;&gt;&lt;span style=&quot;color: #9cdcfe;&quot;&gt;value&lt;/span&gt;&lt;span style=&quot;color: #d4d4d4;&quot;&gt;=&lt;/span&gt;&lt;span style=&quot;color: #569cd6;&quot;&gt;{&lt;/span&gt;&lt;span style=&quot;color: #4fc1ff;&quot;&gt;ctx&lt;/span&gt;&lt;span style=&quot;color: #569cd6;&quot;&gt;}&lt;/span&gt;&lt;/div&gt;" style="rounded=0;whiteSpace=wrap;html=1;" vertex="1" parent="1">
                    <mxGeometry x="260" y="1310" width="120" height="30" as="geometry"/>
                </mxCell>
                <mxCell id="44" value="&lt;div style=&quot;background-color: rgb(31, 31, 31); font-family: &amp;quot;Cascadia code PL&amp;quot;, Menlo, Monaco, &amp;quot;Courier New&amp;quot;, monospace, Consolas, &amp;quot;Courier New&amp;quot;, monospace; font-size: 15px; line-height: 20px;&quot;&gt;&lt;span style=&quot;color: rgb(128, 128, 128);&quot;&gt;&amp;lt;&lt;/span&gt;&lt;font color=&quot;#4ec9b0&quot;&gt;Header&lt;/font&gt;&lt;span style=&quot;color: rgb(128, 128, 128);&quot;&gt;/&amp;gt;&lt;/span&gt;&lt;/div&gt;" style="rounded=0;whiteSpace=wrap;html=1;" vertex="1" parent="1">
                    <mxGeometry x="510" y="1400" width="120" height="60" as="geometry"/>
                </mxCell>
                <mxCell id="46" value="&lt;div style=&quot;background-color: rgb(31, 31, 31); font-family: &amp;quot;Cascadia code PL&amp;quot;, Menlo, Monaco, &amp;quot;Courier New&amp;quot;, monospace, Consolas, &amp;quot;Courier New&amp;quot;, monospace; font-size: 15px; line-height: 20px;&quot;&gt;&lt;font color=&quot;#808080&quot;&gt;ctx.isUserLogged in&lt;/font&gt;&lt;/div&gt;" style="rounded=0;whiteSpace=wrap;html=1;" vertex="1" parent="1">
                    <mxGeometry x="630" y="1370" width="160" height="90" as="geometry"/>
                </mxCell>
                <mxCell id="47" value="&lt;div style=&quot;color: rgb(204, 204, 204); background-color: rgb(31, 31, 31); font-family: &amp;quot;Cascadia code PL&amp;quot;, Menlo, Monaco, &amp;quot;Courier New&amp;quot;, monospace, Consolas, &amp;quot;Courier New&amp;quot;, monospace; font-size: 15px; line-height: 20px;&quot;&gt;&lt;span style=&quot;color: #dcdcaa;&quot;&gt;useContext&lt;/span&gt;(&lt;span style=&quot;color: #4fc1ff;&quot;&gt;AuthContext&lt;/span&gt;)&lt;/div&gt;" style="rounded=0;whiteSpace=wrap;html=1;" vertex="1" parent="1">
                    <mxGeometry x="500" y="1460" width="260" height="60" as="geometry"/>
                </mxCell>
            </root>
        </mxGraphModel>
    </diagram>
</mxfile>